name rise38.3101peak57.3503fall81.6963.mot
datacolumns 19
datarows 23
range 4.67832200000000 4.71499000000000
endheader
time	ground_force1_vx	ground_force1_vy	ground_force1_vz	ground_force1_px	ground_force1_py	ground_force1_pz	ground_force2_vx	ground_force2_vy	ground_force2_vz	ground_force2_px	ground_force2_py	ground_force2_pz	ground_torque1_x	ground_torque1_y	ground_torque1_z	ground_torque2_x	ground_torque2_y	ground_torque2_z	
4.67832200000000	-39.41322100000000	805.06002599999999	56.38076000000000	0.17730000000000	0.00000000000000	0.10023500000000	-11.54835800000000	58.44491100000000	9.45292000000000	0.40820400000000	0.00000000000000	-0.08353500000000	0.00000000000000	28.95623500000000	0.00000000000000	0.00000000000000	6.41380900000000	0.00000000000000	
4.67998500000000	-39.49582900000000	801.94663400000002	56.19575000000000	0.17664000000000	0.00000000000000	0.10022700000000	-12.07476800000000	64.69254700000000	10.09037900000000	0.40957300000000	0.00000000000000	-0.08412200000000	0.00000000000000	28.76832800000000	0.00000000000000	0.00000000000000	6.89581700000000	0.00000000000000	
4.68165200000000	-39.58423200000000	798.69042700000000	55.97988000000000	0.17597500000000	0.00000000000000	0.10021600000000	-12.42107700000000	70.76306099999999	10.61949800000000	0.41078700000000	0.00000000000000	-0.08467900000000	0.00000000000000	28.57301300000000	0.00000000000000	0.00000000000000	7.31294800000000	0.00000000000000	
4.68331700000000	-39.67900800000000	795.29240800000002	55.73280100000000	0.17530500000000	0.00000000000000	0.10020100000000	-12.58952900000000	76.64337900000000	11.03958400000000	0.41187100000000	0.00000000000000	-0.08520900000000	0.00000000000000	28.37050500000000	0.00000000000000	0.00000000000000	7.66439500000000	0.00000000000000	
4.68499400000000	-39.78070300000000	791.75365899999997	55.45423600000000	0.17463100000000	0.00000000000000	0.10018400000000	-12.58925100000000	82.34262000000000	11.35481700000000	0.41284700000000	0.00000000000000	-0.08571600000000	0.00000000000000	28.16103200000000	0.00000000000000	0.00000000000000	7.95256300000000	0.00000000000000	
4.68665200000000	-39.88982600000000	788.07533300000000	55.14398000000000	0.17395300000000	0.00000000000000	0.10016300000000	-12.43460300000000	87.88809999999999	11.57318100000000	0.41373300000000	0.00000000000000	-0.08620100000000	0.00000000000000	27.94483800000000	0.00000000000000	0.00000000000000	8.18237900000000	0.00000000000000	
4.68832000000000	-40.00684700000000	784.25864600000000	54.80189900000000	0.17327100000000	0.00000000000000	0.10013800000000	-12.14338400000000	93.32053399999999	11.70527000000000	0.41454400000000	0.00000000000000	-0.08666600000000	0.00000000000000	27.72217700000000	0.00000000000000	0.00000000000000	8.36052100000000	0.00000000000000	
4.68999100000000	-40.13219500000000	780.30487600000004	54.42793400000000	0.17258600000000	0.00000000000000	0.10010900000000	-11.73506800000000	98.68895700000000	11.76309000000000	0.41529400000000	0.00000000000000	-0.08711300000000	0.00000000000000	27.49331600000000	0.00000000000000	0.00000000000000	8.49463300000000	0.00000000000000	
4.69165600000000	-40.26625500000000	776.21534799999995	54.02210100000000	0.17189800000000	0.00000000000000	0.10007600000000	-11.22920100000000	104.04583900000000	11.75894900000000	0.41599300000000	0.00000000000000	-0.08754400000000	0.00000000000000	27.25853200000000	0.00000000000000	0.00000000000000	8.59259500000000	0.00000000000000	
4.69332100000000	-40.40936500000000	771.99143500000002	53.58449100000000	0.17120800000000	0.00000000000000	0.10004000000000	-10.64406700000000	109.44274200000000	11.70451300000000	0.41665100000000	0.00000000000000	-0.08795800000000	0.00000000000000	27.01810900000000	0.00000000000000	0.00000000000000	8.66191000000000	0.00000000000000	
4.69498500000000	-40.56181600000000	767.63454600000000	53.11526800000000	0.17051700000000	0.00000000000000	0.09999800000000	-9.99568400000000	114.92677000000000	11.61007700000000	0.41727600000000	0.00000000000000	-0.08835900000000	0.00000000000000	26.77234300000000	0.00000000000000	0.00000000000000	8.70921300000000	0.00000000000000	
4.69665100000000	-40.72384500000000	763.14612299999999	52.61467600000000	0.16982500000000	0.00000000000000	0.09995300000000	-9.29713500000000	120.53794400000000	11.48405900000000	0.41787500000000	0.00000000000000	-0.08874600000000	0.00000000000000	26.52153000000000	0.00000000000000	0.00000000000000	8.73994100000000	0.00000000000000	
4.69831800000000	-40.89563600000000	758.52763100000004	52.08302900000000	0.16913300000000	0.00000000000000	0.09990300000000	-8.55824500000000	126.30754600000000	11.33273000000000	0.41845300000000	0.00000000000000	-0.08912000000000	0.00000000000000	26.26597600000000	0.00000000000000	0.00000000000000	8.75814400000000	0.00000000000000	
4.69999100000000	-41.07731700000000	753.78055500000005	51.52071900000000	0.16844200000000	0.00000000000000	0.09984800000000	-7.78555500000000	132.25737100000001	11.16014900000000	0.41901700000000	0.00000000000000	-0.08948200000000	0.00000000000000	26.00598800000000	0.00000000000000	0.00000000000000	8.76643400000000	0.00000000000000	
4.70166000000000	-41.26895700000000	748.90639099999999	50.92821100000000	0.16775200000000	0.00000000000000	0.09978800000000	-6.98254600000000	138.39979000000000	10.96827500000000	0.41956900000000	0.00000000000000	-0.08983300000000	0.00000000000000	25.74187200000000	0.00000000000000	0.00000000000000	8.76605500000000	0.00000000000000	
4.70332000000000	-41.47056400000000	743.90664200000003	50.30604000000000	0.16706500000000	0.00000000000000	0.09972300000000	-6.15004800000000	144.73846800000001	10.75721500000000	0.42011400000000	0.00000000000000	-0.09017400000000	0.00000000000000	25.47393800000000	0.00000000000000	0.00000000000000	8.75702800000000	0.00000000000000	
4.70499100000000	-41.68208200000000	738.78281100000004	49.65481600000000	0.16638000000000	0.00000000000000	0.09965300000000	-5.28677400000000	151.26955799999999	10.52556700000000	0.42065300000000	0.00000000000000	-0.09050400000000	0.00000000000000	25.20249200000000	0.00000000000000	0.00000000000000	8.73837400000000	0.00000000000000	
4.70665200000000	-41.90339200000000	733.53639499999997	48.97521700000000	0.16570000000000	0.00000000000000	0.09957800000000	-4.38991200000000	157.98319699999999	10.27080500000000	0.42119000000000	0.00000000000000	-0.09082400000000	0.00000000000000	24.92783700000000	0.00000000000000	0.00000000000000	8.70835900000000	0.00000000000000	
4.70832500000000	-42.13430400000000	728.16888400000005	48.26798800000000	0.16502500000000	0.00000000000000	0.09949800000000	-3.45571900000000	164.86513900000000	9.98969200000000	0.42172600000000	0.00000000000000	-0.09113500000000	0.00000000000000	24.65027000000000	0.00000000000000	0.00000000000000	8.66475300000000	0.00000000000000	
4.70998800000000	-42.37456400000000	722.68174999999997	47.53394200000000	0.16435500000000	0.00000000000000	0.09941200000000	-2.48008600000000	171.89837100000000	9.67865400000000	0.42226200000000	0.00000000000000	-0.09143700000000	0.00000000000000	24.37008400000000	0.00000000000000	0.00000000000000	8.60508100000000	0.00000000000000	
4.71165500000000	-42.62384400000000	717.07644700000003	46.77395300000000	0.16369200000000	0.00000000000000	0.09932000000000	-1.45901200000000	179.06460500000000	9.33412500000000	0.42279900000000	0.00000000000000	-0.09173000000000	0.00000000000000	24.08756300000000	0.00000000000000	0.00000000000000	8.52683800000000	0.00000000000000	
4.71332100000000	-42.88174600000000	711.35440600000004	45.98895900000000	0.16303700000000	0.00000000000000	0.09922300000000	-0.38899900000000	186.34555499999999	8.95282400000000	0.42333800000000	0.00000000000000	-0.09201600000000	0.00000000000000	23.80298000000000	0.00000000000000	0.00000000000000	8.42767300000000	0.00000000000000	
4.71499000000000	-43.14780100000000	705.51703299999997	45.17995400000000	0.16239100000000	0.00000000000000	0.09912000000000	0.73266700000000	193.72395100000000	8.53196300000000	0.42388000000000	0.00000000000000	-0.09229300000000	0.00000000000000	23.51660100000000	0.00000000000000	0.00000000000000	8.30553300000000	0.00000000000000	
